
<svg xmlns="http://www.w3.org/2000/svg" viewBox="0 0 48 48">
  <path fill="#FF9900" d="M24 4C12.95 4 4 12.95 4 24s8.95 20 20 20 20-8.95 20-20S35.05 4 24 4z"/>
  <path fill="#FFFFFF" d="M33 22.4h-4.8v-3.2c0-.88-.72-1.6-1.6-1.6h-4.8c-.88 0-1.6.72-1.6 1.6v11.2c0 .88.72 1.6 1.6 1.6h4.8c.88 0 1.6-.72 1.6-1.6v-3.2H33c.88 0 1.6-.72 1.6-1.6v-1.6c0-.88-.72-1.6-1.6-1.6z"/>
  <path fill="#FFFFFF" d="M15 25.6h4.8v3.2c0 .88.72 1.6 1.6 1.6h4.8c.88 0 1.6-.72 1.6-1.6V17.6c0-.88-.72-1.6-1.6-1.6h-4.8c-.88 0-1.6.72-1.6 1.6v3.2H15c-.88 0-1.6.72-1.6 1.6v1.6c0 .88.72 1.6 1.6 1.6z"/>
</svg>
